<svg width="135" height="19" viewBox="0 0 135 19" fill="none" xmlns="http://www.w3.org/2000/svg">
<path d="M8.69824 13.8008H8.86914L13.1904 0.324219H17.2432L11.1396 18H6.42773L0.299805 0.324219H4.40137L8.69824 13.8008ZM15.9248 18L22.0527 0.324219H26.7646L32.8682 18H28.9375L27.6069 13.9229H21.2104L19.8799 18H15.9248ZM26.6792 11.0664L24.4697 4.30371H24.3477L22.1382 11.0664H26.6792ZM45.8564 6.47656C45.71 5.50814 45.2909 4.74316 44.5991 4.18164C43.9074 3.62012 43.0407 3.33529 41.999 3.32715C41.0794 3.33529 40.2738 3.56722 39.582 4.02295C38.8984 4.47868 38.3695 5.146 37.9951 6.0249C37.6208 6.89567 37.4336 7.94141 37.4336 9.16211C37.4336 10.4072 37.6208 11.4652 37.9951 12.3359C38.3776 13.2067 38.9066 13.8659 39.582 14.3135C40.2656 14.7611 41.0632 14.9889 41.9746 14.9971C42.9919 14.9889 43.8504 14.7204 44.5503 14.1914C45.2502 13.6543 45.6855 12.9137 45.8564 11.9697L49.5674 11.9941C49.429 13.109 49.0343 14.1426 48.3833 15.0947C47.7323 16.0469 46.8534 16.8118 45.7466 17.3896C44.6398 17.9593 43.3662 18.2441 41.9258 18.2441C40.3389 18.2441 38.9229 17.8861 37.6777 17.1699C36.4408 16.4456 35.4683 15.3999 34.7603 14.0327C34.0522 12.6574 33.6982 11.0339 33.6982 9.16211C33.6982 7.28223 34.0522 5.65869 34.7603 4.2915C35.4764 2.92432 36.457 1.88265 37.7021 1.1665C38.9473 0.44222 40.3551 0.0800781 41.9258 0.0800781C43.2848 0.0800781 44.5137 0.332357 45.6123 0.836914C46.7109 1.34147 47.6021 2.07389 48.2856 3.03418C48.9774 3.99447 49.4046 5.14193 49.5674 6.47656H45.8564ZM67.4873 5.37793C67.4141 4.67806 67.1089 4.13281 66.5718 3.74219C66.0428 3.35156 65.3307 3.15625 64.4355 3.15625C63.8252 3.15625 63.3003 3.24577 62.8608 3.4248C62.4295 3.5957 62.0999 3.83577 61.8721 4.14502C61.6442 4.45426 61.5303 4.8042 61.5303 5.19482C61.5303 5.78076 61.7826 6.24463 62.2871 6.58643C62.7998 6.92008 63.4915 7.18457 64.3623 7.37988L65.9492 7.77051C67.585 8.14486 68.8748 8.75521 69.8188 9.60156C70.7629 10.4398 71.2389 11.5547 71.2471 12.9463C71.2471 14.0205 70.9744 14.9564 70.4292 15.7539C69.884 16.5514 69.0986 17.1659 68.0732 17.5972C67.0479 18.0285 65.8271 18.2441 64.4111 18.2441C62.9788 18.2523 61.7378 18.0366 60.688 17.5972C59.6382 17.1577 58.8203 16.5067 58.2344 15.644C57.6484 14.7814 57.3392 13.7275 57.3066 12.4824H60.8711C60.9281 13.3532 61.2699 14.0205 61.8965 14.4844C62.5312 14.9401 63.3532 15.168 64.3623 15.168C64.9971 15.168 65.5545 15.0744 66.0347 14.8872C66.5148 14.7 66.8851 14.4396 67.1455 14.106C67.4059 13.7723 67.5361 13.3857 67.5361 12.9463C67.5361 12.3766 67.2879 11.925 66.7915 11.5913C66.3032 11.2495 65.5423 10.9525 64.5088 10.7002L62.5801 10.2363C59.3737 9.44694 57.7705 7.84375 57.7705 5.42676C57.7705 4.37695 58.0553 3.44922 58.625 2.64355C59.2028 1.82975 59.9963 1.19906 61.0054 0.751465C62.0226 0.303874 63.1742 0.0800781 64.46 0.0800781C65.7458 0.0800781 66.881 0.303874 67.8657 0.751465C68.8504 1.19906 69.6154 1.82568 70.1606 2.63135C70.7059 3.42887 70.9867 4.3444 71.0029 5.37793H67.4873ZM72.9561 0.324219H87.4336V3.35156H82.0137V18H78.376V3.35156H72.9561V0.324219ZM86.5303 18L92.6582 0.324219H97.3701L103.474 18H99.543L98.2124 13.9229H91.8159L90.4854 18H86.5303ZM97.2847 11.0664L95.0752 4.30371H94.9531L92.7437 11.0664H97.2847ZM116.389 6.0127C116.136 5.17448 115.685 4.51937 115.034 4.04736C114.383 3.57536 113.581 3.33529 112.629 3.32715C111.717 3.33529 110.916 3.56722 110.224 4.02295C109.532 4.47868 108.995 5.14193 108.613 6.0127C108.23 6.88346 108.039 7.92513 108.039 9.1377C108.039 10.3665 108.226 11.4204 108.601 12.2993C108.975 13.1782 109.508 13.8455 110.2 14.3013C110.891 14.757 111.709 14.9889 112.653 14.9971C113.483 14.9971 114.2 14.8465 114.802 14.5454C115.412 14.2443 115.88 13.8211 116.206 13.2759C116.539 12.7225 116.714 12.0755 116.73 11.335H112.897V8.57617H120.271V10.7734C120.271 12.2952 119.945 13.6217 119.294 14.7529C118.651 15.876 117.748 16.7386 116.584 17.3408C115.428 17.943 114.11 18.2441 112.629 18.2441C110.985 18.2441 109.532 17.8779 108.271 17.1455C107.018 16.4049 106.041 15.3551 105.341 13.9961C104.65 12.6289 104.304 11.0257 104.304 9.18652C104.304 7.32292 104.662 5.70345 105.378 4.32812C106.094 2.9528 107.079 1.90299 108.332 1.17871C109.585 0.446289 110.993 0.0800781 112.556 0.0800781C113.866 0.0800781 115.066 0.332357 116.157 0.836914C117.247 1.34147 118.134 2.04541 118.818 2.94873C119.51 3.84391 119.937 4.86523 120.1 6.0127H116.389ZM122.956 0.324219H134.821V3.35156H126.618V7.64844H134.211V10.6758H126.618V14.9727H134.846V18H122.956V0.324219Z" fill="black"/>
</svg>
