<svg width="145" height="91" viewBox="0 0 145 91" fill="none" xmlns="http://www.w3.org/2000/svg">
<path d="M42.1471 26.1615H42.4661L50.5326 1.0052H58.0977L46.7044 34H37.9089L26.47 1.0052H34.1263L42.1471 26.1615ZM55.6367 34L67.0755 1.0052H75.8711L87.2643 34H79.9271L77.4434 26.3893H65.5033L63.0195 34H55.6367ZM75.7116 21.0573L71.5872 8.43359H71.3594L67.235 21.0573H75.7116ZM111.509 12.4896C111.236 10.6819 110.453 9.2539 109.162 8.20573C107.871 7.15755 106.253 6.62587 104.309 6.61067C102.592 6.62587 101.088 7.05881 99.7969 7.9095C98.5208 8.7602 97.5334 10.0059 96.8346 11.6465C96.1359 13.2719 95.7865 15.224 95.7865 17.5026C95.7865 19.8268 96.1359 21.8016 96.8346 23.4271C97.5486 25.0525 98.536 26.283 99.7969 27.1185C101.073 27.954 102.562 28.3793 104.263 28.3945C106.162 28.3793 107.765 27.878 109.071 26.8906C110.377 25.888 111.19 24.5056 111.509 22.7435L118.436 22.7891C118.178 24.8702 117.441 26.7995 116.226 28.5768C115.011 30.3542 113.37 31.7821 111.304 32.8607C109.238 33.924 106.861 34.4557 104.172 34.4557C101.21 34.4557 98.5664 33.7873 96.2422 32.4505C93.9332 31.0985 92.1178 29.1465 90.7962 26.5944C89.4746 24.0271 88.8138 20.9965 88.8138 17.5026C88.8138 13.9935 89.4746 10.9629 90.7962 8.4108C92.133 5.85872 93.9635 3.91428 96.2878 2.57747C98.612 1.22547 101.24 0.549476 104.172 0.549476C106.709 0.549476 109.003 1.0204 111.053 1.96224C113.104 2.90408 114.768 4.27126 116.044 6.0638C117.335 7.85633 118.132 9.99826 118.436 12.4896H111.509ZM19.224 66.4388C19.0872 65.1324 18.5176 64.1146 17.515 63.3854C16.5276 62.6562 15.1983 62.2917 13.5273 62.2917C12.388 62.2917 11.4082 62.4588 10.5879 62.793C9.78276 63.112 9.16753 63.5601 8.74218 64.1374C8.31683 64.7146 8.10416 65.3678 8.10416 66.097C8.10416 67.1908 8.57508 68.0566 9.51692 68.6947C10.4739 69.3175 11.7652 69.8112 13.3906 70.1758L16.3529 70.9049C19.4062 71.6037 21.814 72.7431 23.5762 74.3229C25.3383 75.8876 26.227 77.9687 26.2422 80.5664C26.2422 82.5716 25.7333 84.3186 24.7155 85.8073C23.6977 87.296 22.2318 88.4429 20.3177 89.248C18.4036 90.0532 16.125 90.4557 13.4818 90.4557C10.8082 90.4709 8.49153 90.0684 6.53189 89.248C4.57226 88.4277 3.04556 87.2125 1.95181 85.6022C0.858063 83.992 0.280806 82.0247 0.220042 79.7005H6.87369C6.98003 81.326 7.61805 82.5716 8.78775 83.4375C9.97265 84.2882 11.5069 84.7135 13.3906 84.7135C14.5755 84.7135 15.6161 84.5388 16.5124 84.1895C17.4086 83.8401 18.0998 83.3539 18.5859 82.7311C19.072 82.1083 19.3151 81.3867 19.3151 80.5664C19.3151 79.503 18.8518 78.6599 17.9251 78.0371C17.0137 77.3991 15.5933 76.8446 13.6641 76.3737L10.0638 75.5078C4.07855 74.0343 1.08593 71.0417 1.08593 66.5299C1.08593 64.5703 1.61761 62.8385 2.68098 61.3346C3.75954 59.8155 5.24066 58.6382 7.12434 57.8027C9.02321 56.9672 11.1727 56.5495 13.5729 56.5495C15.9731 56.5495 18.0922 56.9672 19.9303 57.8027C21.7684 58.6382 23.1964 59.8079 24.2142 61.3118C25.232 62.8006 25.7561 64.5095 25.7865 66.4388H19.224ZM29.4323 57.0052H56.457V62.6562H46.3398V90H39.5495V62.6562H29.4323V57.0052ZM54.7708 90L66.2096 57.0052H75.0052L86.3984 90H79.0612L76.5775 82.3893H64.6374L62.1536 90H54.7708ZM74.8457 77.0573L70.7214 64.4336H70.4935L66.3691 77.0573H74.8457ZM110.507 67.6237C110.036 66.059 109.192 64.8362 107.977 63.9551C106.762 63.074 105.266 62.6259 103.488 62.6107C101.787 62.6259 100.291 63.0588 98.9993 63.9095C97.7081 64.7602 96.7055 65.9983 95.9915 67.6237C95.2776 69.2491 94.9206 71.1936 94.9206 73.457C94.9206 75.7509 95.27 77.7181 95.9687 79.3587C96.6675 80.9993 97.6625 82.245 98.9538 83.0957C100.245 83.9464 101.772 84.3793 103.534 84.3945C105.083 84.3945 106.42 84.1135 107.544 83.5514C108.684 82.9894 109.557 82.1994 110.165 81.1816C110.788 80.1487 111.114 78.941 111.145 77.5586H103.99V72.4089H117.753V76.5104C117.753 79.3511 117.145 81.8273 115.93 83.9388C114.73 86.0352 113.043 87.6454 110.871 88.7695C108.714 89.8937 106.253 90.4557 103.488 90.4557C100.42 90.4557 97.7081 89.7721 95.3535 88.4049C93.0141 87.0226 91.1912 85.0629 89.8848 82.526C88.5935 79.974 87.9479 76.9813 87.9479 73.5482C87.9479 70.0694 88.6163 67.0464 89.9531 64.4792C91.2899 61.9119 93.128 59.9523 95.4674 58.6003C97.8069 57.2331 100.435 56.5495 103.352 56.5495C105.797 56.5495 108.038 57.0204 110.074 57.9622C112.109 58.9041 113.765 60.2181 115.041 61.9043C116.332 63.5753 117.13 65.4818 117.434 67.6237H110.507ZM122.766 57.0052H144.914V62.6562H129.602V70.6771H143.775V76.3281H129.602V84.349H144.96V90H122.766V57.0052Z" fill="black"/>
</svg>
