<svg width="24" height="24" viewBox="0 0 24 24" fill="none" xmlns="http://www.w3.org/2000/svg">
<path d="M8.53178 11.8973C7.98167 10.5251 7.9222 9.00514 8.36341 7.59421C8.80462 6.18328 9.71946 4.96796 10.9533 4.15368C12.1871 3.33941 13.6643 2.97611 15.135 3.1252C16.6058 3.2743 17.98 3.92664 19.0253 4.97196C20.0706 6.01728 20.723 7.39146 20.872 8.86223C21.0211 10.333 20.6578 11.8101 19.8436 13.044C19.0293 14.2778 17.8139 15.1926 16.403 15.6338C14.9921 16.075 13.4721 16.0156 12.1 15.4655L12.1 15.4653L10.9254 16.6399H8.78456V18.7808H6.6437V20.9216H3.07561V17.3535L8.53194 11.8972L8.53178 11.8973Z" stroke="black" stroke-width="1.37015" stroke-linecap="round" stroke-linejoin="round"/>
<path opacity="0.5" d="M16.2773 8.07649C16.4744 8.07649 16.6341 7.91674 16.6341 7.71968C16.6341 7.52262 16.4744 7.36287 16.2773 7.36287C16.0803 7.36287 15.9205 7.52262 15.9205 7.71968C15.9205 7.91674 16.0803 8.07649 16.2773 8.07649Z" stroke="black" stroke-width="0.913433" stroke-linecap="round" stroke-linejoin="round"/>
<path d="M16.2773 8.4333C16.6715 8.4333 16.991 8.1138 16.991 7.71968C16.991 7.32556 16.6715 7.00606 16.2773 7.00606C15.8832 7.00606 15.5637 7.32556 15.5637 7.71968C15.5637 8.1138 15.8832 8.4333 16.2773 8.4333Z" fill="black"/>
</svg>
