<svg width="243" height="258" viewBox="0 0 243 258" fill="none" xmlns="http://www.w3.org/2000/svg">
<path d="M3 229.518L25.7101 199.238L39.1032 195.162C39.1032 195.162 44.344 174.781 44.344 173.034C44.344 171.287 49.0025 160.224 49.0025 160.224L61.231 156.147L62.3956 137.514L53.0786 128.779L49.0025 135.184L46.6732 106.651L58.9017 94.4226L57.1548 82.1941L50.1671 81.0295L43.7617 30.3685L45.5086 21.0516L60.6487 3H73.4595L104.322 17.5577L121.209 36.1916L138.096 39.1032L173.034 65.3071L178.857 82.7764L192.055 88.0172L192.251 108.398L220.784 122.956L232.43 133.051L231.848 143.337L240 156.147L238.253 161.971L228.354 166.047L214.961 161.388L199.821 160.224L188.174 166.047L189.339 178.275L174.781 186.428L171.287 200.985L163.135 205.061L142.754 205.644L125.285 194.58L101.41 181.187L79.8649 182.351L71.7125 197.491L83.941 209.138L86.8526 234.177L82.1941 252.811L62.9779 234.759L52.4963 237.671L44.9263 245.241L31.5332 244.076L26.8747 237.088L3.58231 235.924L3 229.518Z" fill="#256AF0" stroke="white" stroke-width="4.65848"/>
<path d="M81.857 66.4912C81.857 67.4761 82.0709 68.461 82.4985 69.4459C82.9327 70.4243 83.5029 71.299 84.2091 72.0701C84.9154 72.8347 85.667 73.4049 86.464 73.7807L85.7253 74.7915C85.0774 74.4546 84.4586 74.001 83.8689 73.4308C83.2858 72.8541 82.7674 72.1965 82.3139 71.4578C81.8603 70.7191 81.5104 69.9383 81.2642 69.1154C81.0179 69.9837 80.6713 70.8098 80.2242 71.5939C79.7771 72.3714 79.262 73.0647 78.6788 73.6738C78.0956 74.2764 77.4833 74.7527 76.8419 75.1026L76.0449 74.1306C76.8419 73.7224 77.5902 73.1133 78.29 72.3034C78.9963 71.4934 79.5633 70.5766 79.9909 69.5528C80.4186 68.5226 80.6324 67.502 80.6324 66.4912V63.1866H81.857V66.4912ZM84.5979 67.6381H88.9133V61.651H90.1185V78.8154H88.9133V68.6683H84.5979V67.6381ZM108.819 71.1371H101.607V73.3336H106.855V78.7959H105.631V74.3639H94.9199V73.3336H100.402V71.1371H93.1898V70.1262H108.819V71.1371ZM95.2892 62.0397H96.5138V64.1586H105.533V62.0397H106.758V68.3768H95.2892V62.0397ZM105.533 67.3659V65.1305H96.5138V67.3659H105.533ZM123.884 64.2946C123.877 65.435 123.845 66.4297 123.786 67.2785C123.728 68.1208 123.589 69.0895 123.368 70.1846H126.022V71.2343H118.791V78.8154H117.585V71.2343H110.393V70.1846H122.115C122.354 69.096 122.503 68.1176 122.562 67.2493C122.627 66.3811 122.659 65.3962 122.659 64.2946V63.8281H112.415V62.7979H123.884V64.2946Z" fill="white"/>
<path d="M132.421 155.851H116.792V154.84H124.004V152.663H118.794V147.065H130.458V148.056H120V151.633H130.574V152.663H125.19V154.84H132.421V155.851ZM118.697 160.283C118.697 159.642 118.931 159.094 119.397 158.64C119.87 158.18 120.55 157.83 121.438 157.591C122.326 157.351 123.382 157.231 124.607 157.231C125.825 157.231 126.874 157.351 127.756 157.591C128.637 157.83 129.311 158.18 129.777 158.64C130.244 159.094 130.477 159.642 130.477 160.283C130.477 160.931 130.244 161.485 129.777 161.945C129.311 162.412 128.637 162.765 127.756 163.004C126.881 163.244 125.831 163.367 124.607 163.374C123.376 163.367 122.316 163.244 121.428 163.004C120.547 162.765 119.87 162.415 119.397 161.955C118.931 161.495 118.697 160.937 118.697 160.283ZM119.941 160.283C119.941 160.711 120.126 161.08 120.495 161.391C120.871 161.702 121.406 161.942 122.099 162.11C122.792 162.279 123.612 162.363 124.558 162.363C125.511 162.363 126.34 162.279 127.046 162.11C127.752 161.948 128.297 161.712 128.679 161.401C129.061 161.09 129.252 160.717 129.252 160.283C129.252 159.862 129.061 159.496 128.679 159.185C128.303 158.867 127.765 158.624 127.066 158.456C126.372 158.287 125.553 158.203 124.607 158.203C123.654 158.203 122.825 158.287 122.118 158.456C121.419 158.624 120.881 158.867 120.505 159.185C120.129 159.496 119.941 159.862 119.941 160.283ZM147.35 150.292H150.013V151.341H147.35V155.948H146.125V146.248H147.35V150.292ZM134.87 147.123H136.114V153.441H136.212C137.572 153.441 138.901 153.382 140.196 153.266C141.499 153.143 142.834 152.942 144.201 152.663L144.356 153.713C142.95 153.998 141.59 154.199 140.274 154.315C138.959 154.432 137.605 154.49 136.212 154.49H134.87V147.123ZM136.6 156.94H147.35V163.141H136.6V156.94ZM146.145 162.11V157.931H137.786V162.11H146.145ZM164.689 148.892C164.683 150.032 164.65 151.027 164.592 151.876C164.534 152.718 164.394 153.687 164.174 154.782H166.828V155.832H159.596V163.413H158.391V155.832H151.199V154.782H162.92C163.16 153.693 163.309 152.715 163.367 151.847C163.432 150.978 163.465 149.993 163.465 148.892V148.425H153.22V147.395H164.689V148.892Z" fill="white"/>
<path d="M51.0214 133.628L81.1281 123.924V103.521H86.3532L93.5689 123.924L112.976 113.474L118.202 103.521H135.867H147.313L155.275 95.8082L174.683 89.5878H190.607H203.048" stroke="white" stroke-width="1.99052"/>
</svg>
